<?xml version="1.0" standalone="no"?><!DOCTYPE svg PUBLIC "-//W3C//DTD SVG 1.1//EN" "http://www.w3.org/Graphics/SVG/1.1/DTD/svg11.dtd"><svg t="1697608816934" class="icon" viewBox="0 0 1024 1024" version="1.1" xmlns="http://www.w3.org/2000/svg" p-id="3508" xmlns:xlink="http://www.w3.org/1999/xlink" width="200" height="200"><path d="M527.7 144.2l110.4 223.7c2.4 4.9 7.1 8.3 12.6 9.1l246.8 35.9c13.7 2 19.2 18.8 9.3 28.5L728.2 615.5c-3.9 3.8-5.7 9.4-4.8 14.8l42.2 245.8c2.3 13.6-12 24-24.2 17.6L520.5 777.6c-4.9-2.6-10.7-2.6-15.5 0L284.2 893.7c-12.3 6.4-26.6-4-24.2-17.6l42.2-245.8c0.9-5.4-0.9-10.9-4.8-14.8L118.7 441.4c-9.9-9.7-4.4-26.5 9.3-28.5L374.8 377c5.4-0.8 10.1-4.2 12.6-9.1l110.4-223.7c6.1-12.4 23.8-12.4 29.9 0z" fill="#2c2c2c" p-id="3509"></path></svg>