<?xml version="1.0" standalone="no"?><!DOCTYPE svg PUBLIC "-//W3C//DTD SVG 1.1//EN" "http://www.w3.org/Graphics/SVG/1.1/DTD/svg11.dtd"><svg t="1697608752184" class="icon" viewBox="0 0 1024 1024" version="1.1" xmlns="http://www.w3.org/2000/svg" p-id="3144" xmlns:xlink="http://www.w3.org/1999/xlink" width="200" height="200"><path d="M526.176 77.76a32 32 0 0 1 14.528 14.528l104.32 211.328a32 32 0 0 0 24.064 17.504l233.216 33.888a32 32 0 0 1 17.728 54.592l-168.736 164.48a32 32 0 0 0-9.216 28.32l39.84 232.32a32 32 0 0 1-46.4 33.696l-208.64-109.664a32 32 0 0 0-29.76 0l-208.64 109.664a32 32 0 0 1-46.4-33.728l39.84-232.288a32 32 0 0 0-9.216-28.32L104 409.6a32 32 0 0 1 17.728-54.592l233.216-33.92a32 32 0 0 0 24.096-17.472l104.32-211.328a32 32 0 0 1 42.848-14.56zM512 178.688l-75.616 153.216a96 96 0 0 1-66.08 51.424l-6.176 1.088-169.088 24.576 122.336 119.232a96 96 0 0 1 28.48 78.72l-0.864 6.272-28.864 168.352 151.2-79.488a96 96 0 0 1 83.264-2.912l6.08 2.912 151.168 79.488-28.832-168.352a96 96 0 0 1 23.232-80.448l4.384-4.544 122.304-119.232-169.056-24.576a96 96 0 0 1-69.312-46.976l-2.944-5.536L512 178.72z" fill="#2c2c2c" p-id="3145"></path></svg>