<?xml version="1.0" standalone="no"?><!DOCTYPE svg PUBLIC "-//W3C//DTD SVG 1.1//EN" "http://www.w3.org/Graphics/SVG/1.1/DTD/svg11.dtd"><svg t="1696322870159" class="icon" viewBox="0 0 1024 1024" version="1.1" xmlns="http://www.w3.org/2000/svg" p-id="13534" xmlns:xlink="http://www.w3.org/1999/xlink" width="200" height="200"><path d="M952.8 673.6a40.16 40.16 0 0 0-39.2 39.2c0 86.4-57.6 156.96-130.88 156.96H241.28c-73.28 0-130.88-69.76-130.88-156.96a40.16 40.16 0 0 0-39.2-39.2A40.16 40.16 0 0 0 32 712.8c0 130.88 94.24 235.52 209.28 235.52h541.44c115.04 0 209.28-104.64 209.28-235.52a40.16 40.16 0 0 0-39.2-39.2z" fill="#2c2c2c" p-id="13535"></path><path d="M536.8 85.12a44.32 44.32 0 0 0-57.44 0l-149.12 149.12a38.88 38.88 0 0 0 54.88 54.88L466.24 208v444.64a39.2 39.2 0 1 0 78.4 0V208l81.12 81.12a38.88 38.88 0 1 0 54.88-54.88z" fill="#2c2c2c" p-id="13536"></path></svg>